<?xml version="1.0" encoding="utf-8"?>
<!-- Generator: Adobe Illustrator 24.0.1, SVG Export Plug-In . SVG Version: 6.00 Build 0)  -->
<svg version="1.1" id="Layer_1" xmlns="http://www.w3.org/2000/svg" xmlns:xlink="http://www.w3.org/1999/xlink" x="0px" y="0px"
	 viewBox="0 0 3653 2146" style="enable-background:new 0 0 3653 2146;" xml:space="preserve">
<style type="text/css">
	.st0{display:none;fill:#77C18D;}
	.st1{display:none;fill:#A1D4B0;}
	.st2{display:none;fill:none;}
	.st3{fill:#FFFFFF;}
	.st4{fill:none;}
	.st5{fill:#229C0A;}
	.st6{font-family:'Circe-Regular';}
	.st7{font-size:300px;}
</style>
<path class="st0" d="M3039.7,1719.1c0,0.7,0,1.3,0,2c-11.3,0-22.7,0-34,0c0.4-0.7,0.3-1.3-0.1-1.9
	C3017,1719.2,3028.4,1719.1,3039.7,1719.1z"/>
<path class="st0" d="M3397.6,1721.1c0-0.6-0.1-1.3-0.1-1.9c10.1,0,20.2,0,30.2,0c-0.4,0.6-0.5,1.2-0.1,1.9
	C3417.6,1721.1,3407.6,1721.1,3397.6,1721.1z"/>
<path class="st0" d="M1762.2,1719.1c8.9,0.1,17.8,0.1,26.7,0.2c1.4,0,2.5,0.6,3.2,1.9c-10,0-20,0-30,0
	C1762.1,1720.4,1762.1,1719.7,1762.2,1719.1z"/>
<path class="st0" d="M804.3,1719.2c8.3,0,16.6,0,24.9,0c1.4,0,2.5,0.6,3.2,1.9c-9.3,0-18.7,0-28,0
	C804.7,1720.4,804.7,1719.8,804.3,1719.2z"/>
<path class="st0" d="M2039.9,1719.2c8.3,0,16.6,0,24.9,0c1.4,0,2.5,0.6,3.2,1.9c-9.3,0-18.7,0-28,0
	C2040.4,1720.4,2040.3,1719.8,2039.9,1719.2z"/>
<path class="st0" d="M2249.8,1719.2c8.3,0,16.6,0,24.9,0c1.4,0,2.5,0.6,3.2,1.9c-9.3,0-18.7,0-28,0
	C2250.3,1720.4,2250.3,1719.8,2249.8,1719.2z"/>
<path class="st0" d="M2580,1719.2c0,0.6-0.1,1.3-0.1,1.9c-9.3,0-18.7,0-28,0c0.2-0.6,0.1-1.2-0.2-1.8
	C2561.1,1719.2,2570.5,1719.2,2580,1719.2z"/>
<path class="st0" d="M2170,1284.3c3.3-1.4,6.7-1.1,12.1,0.5C2176.6,1286.4,2173.4,1286.6,2170,1284.3z"/>
<path class="st0" d="M2196.5,1415.5c3.9-2.6,6-1.7,9.1-2.4C2202.6,1415.7,2200.5,1414,2196.5,1415.5z"/>
<path class="st1" d="M3526.5,671.1c0.5-0.1,1-0.2,1.5,0c0,12.8,0,25.5,0,38.3l-0.7,0.3l-0.7-0.3
	C3526.1,696.6,3525.9,683.9,3526.5,671.1z"/>
<path class="st1" d="M3388.2,1571c2.4-3,4.8-2.1,7.3,0C3393,1571,3390.6,1571,3388.2,1571z"/>
<path class="st1" d="M3382.7,1569.4c1.1,0,1.9,0.4,1.9,1.6c-0.6,0-1.2,0-1.8,0C3382.8,1570.5,3382.7,1569.9,3382.7,1569.4z"/>
<path class="st2" d="M1489.5,905.9c-28.3,0.4-54.2-3.8-79.4-12.1c-15.4-5.1-29.3-13.2-43.4-21c-3.1-1.7-3.9-3.9-4-7.7
	c-0.6-14.5,0.7-29,0.3-43.5c-0.5-20.3-0.6-40.5-0.2-60.8c0.5-25.2-0.1-50.3,0.3-75.5c0.2-15,0.4-30.1-0.5-45.2
	c-0.7-11,0.3-22.1,0.1-33.2c-0.1-3.4,2.9-5.7,5.1-7.9c11.3-11.6,23.7-22,37.8-30.5c21.6-13,44.8-22.4,69.7-27.3
	c17.7-3.5,35.6-3.6,53.6-2.2c38.5,3,72.9,15.8,101.3,41.3c17.7,15.9,31.3,34.8,39.8,56.9c6.2,16.3,11.3,32.9,13.4,50
	c3.4,29,2.8,58-4.6,86.7c-6.1,23.5-16.1,45.1-31.6,64.2c-16.4,20.3-36.5,36.3-60.8,47.5c-18.8,8.7-38.4,14.6-58.8,18
	C1514.5,905.8,1501.2,906.5,1489.5,905.9z"/>
<path class="st2" d="M3100.6,675.1c0.7-15.3,6-29,11.7-42.6c8.2-19.8,20.4-37.3,36.7-51.7c23.5-20.8,51.3-33.2,82.7-39.1
	c25.5-4.8,51-4.7,76.3-0.7c26,4.2,49.6,13.9,70.2,30.7c32,26.1,45,60.1,48.8,98.7c0.4,3.7-0.4,4.9-4.7,5.2
	c-10.2,0.6-20.2-0.5-30.4-0.4c-14.9,0.2-29.9,0.7-44.8,0.3c-13.1-0.3-26.3-0.3-39.4-0.1c-9.2,0.1-18.4,0.5-27.6,0.3
	c-15.2-0.3-30.5,0.8-45.7-0.6c-7.2-0.7-14.3,0.3-21.5,0.2c-23.1-0.4-46.3,0.7-69.4,0C3129.4,674.7,3115.2,675.1,3100.6,675.1z"/>
<g>
	<path class="st3" d="M1246.8,409.3c0.1,26.3,0.2,52.6,0.2,78.9c0,53.3,1,161.3,1,161.3v94.4c0,0,5.5-3.1,7.9-5
		c23.8-19.3,51.4-31.7,80.4-41.7c19.9-6.9,40.6-10.5,61.6-12.1c12-1,24.1-1,36.1-0.3c18.4,1,36.7,3.5,54.7,7.9
		c37.8,9.4,71.7,25.8,100.8,51.3c25.9,22.7,45.2,49.7,58.9,80.6c12,27,18.8,55.1,22,84.2c1.5,13.8,3.1,27.5,2.6,41.3
		c-0.7,19.5-2.3,38.9-5.8,58.2c-5.5,30-15.8,58.2-31.1,84.9c-19.6,34.2-46.4,61.8-80.1,83.7c-22.9,14.8-47.5,25.8-73.7,33.7
		c-29.7,9-60.2,13.9-91.2,14.9c-49,1.6-97.3-3.6-144.5-16.8c-27.8-7.8-54.2-18.6-79.3-32.5c-4.1-2.3-8-5-12.1-7.5
		c-3.1-1.9-4.2-4.6-4.2-8.1c0.1-32.7,0.1-65.4,0.2-98.1c0-14.5-0.2-43.4-0.2-43.4l1-76.1v-58l-1-76.4l1-106.4c0,0,0-81,0-120.6
		c0-42.5,0-85.1,0-127.6c0-14.8-0.2-29.7-0.3-44.5C1183.3,409.3,1215.1,409.3,1246.8,409.3z M1374.5,1138.9
		c11.7,0.6,24.9-0.1,38-2.3c20.4-3.3,40-9.3,58.8-18c24.3-11.3,44.4-27.3,60.8-47.5c15.4-19.1,25.5-40.7,31.6-64.2
		c7.4-28.7,8.1-57.7,4.6-86.7c-2-17.1-7.1-33.7-13.4-50c-8.5-22.2-22.1-41-39.8-56.9c-28.4-25.5-62.7-38.2-101.3-41.3
		c-18-1.4-35.9-1.3-53.6,2.2c-24.9,5-48.1,14.3-69.7,27.3c-14.1,8.5-26.5,18.9-37.8,30.5c-2.2,2.3-5.1,4.6-5.1,7.9
		c0.2,11.1-0.8,22.2-0.1,33.2c0.9,15.1,0.7,30.2,0.5,45.2c-0.4,25.2,0.2,50.3-0.3,75.5c-0.4,20.3-0.3,40.5,0.2,60.8
		c0.4,14.5-0.9,29-0.3,43.5c0.2,3.8,1,6,4,7.7c14,7.8,27.9,15.9,43.4,21C1320.3,1135.1,1346.2,1139.3,1374.5,1138.9z"/>
	<path class="st4" d="M437.5,1216.4c-22.1,5.2-44.7,8.7-67.6,8.6c-10.7,0-21.4,0.7-32.2,0.1c-21-1.1-41.6-4.3-62-8.7
		c-20.3-4.4-39.8-11.4-58.4-20.1c-20.8-9.7-39.9-22-57.4-36.6c-27.4-22.8-48.5-50.4-64-81.7c-12-24.3-20.1-49.9-23.7-76.8
		c-1.6-11.7-3-23.3-3.6-35.9c19.9,13.1,41.1,21.1,63.9,25c11.6,2,23.3,2.8,35.1,2.8c6.5,0,6.6,0,7.9,6.4
		c4.5,22.6,13.6,43.4,26.6,62.7c15.2,22.6,34.9,40.7,59.6,53.7c22.7,12,46.6,19.2,72.5,21.9c28.6,3,56.5,0.7,83.7-7.4
		c33.5-10,61.5-27.9,83.6-54.6c15.4-18.7,26.1-39.3,32.8-61.8c4.9-16.2,7.1-32.9,7.8-50c0.8-20.7-1.4-40.7-6-60.7
		c-5-21.4-14.3-41.1-27-59c-11.5-16.2-25.9-30.1-42.9-41.6c-28.3-19.2-59.9-29.2-94.1-31.2c-18.7-1.1-37.6-1.2-56.2,3.2
		c-7,1.6-7.2,1.4-10.3-4.7c-12.6-25-31.6-44.6-55.2-60.2c-2.7-1.8-5.6-3.2-8.6-4.9c5.5-3.6,11.5-5.3,17.6-7
		c21-6.1,42.4-10.9,64.3-12.3c30-1.8,59.9-1.7,89.8,3.2c29.2,4.8,57.2,12.8,83.6,25.6c19.3,9.4,37.2,20.7,53.8,34.2
		c21.8,17.7,39.8,38.3,54.3,61.5c13.9,22.3,24,46.2,30.3,71.7c3.8,15.2,7.1,30.4,8.3,45.7c1.6,19.2,1.6,38.5-0.6,57.8
		c-2.3,20.6-6.3,40.8-12.7,60.6c-8.7,26.5-22.1,50.8-38.7,73.5c-8,10.9-17,21.1-27,30.1c-17.8,16.3-37.3,30.7-59.4,41.8
		C483.6,1202.3,461.1,1210.9,437.5,1216.4z M1071.6,713.7c-8.3,21.3-16.5,42.7-24.8,64c-1.8,4.6-3.8,9-6,14.1
		c-5-2.3-10.2-4.6-15.1-7.1c-13.8-7-28.4-10.7-43.9-11.4c-21.2-0.9-42.1,0-62,8.3c-16.4,6.8-30.1,16.9-41.4,29.9
		c-8.2,9.5-15.4,19.7-21.3,30.7c-1.4,2.7-2.1,5.3-2.1,8.3c0.1,24.8,0,74.4,0,74.4l1,70.8v108.4c0,0-0.8,58.4-0.9,87.7
		c0,6-0.2,12.1,0,18.1c0.1,3.5-1.2,4.2-4.8,4.2c-19.6-0.1-39.2,0-58.9,0.1c-9.1,0-18.1-0.2-27.2,0.1c-4.5,0.1-5.6-1.4-5.5-5.5
		c0.2-35.3,0.2-70.6,0.2-105.9c0.1-26.6,0.2-53.2,0.2-79.9c0-26.1-0.6-52.2-0.2-78.3c0.3-22.2-0.2-44.4,0.3-66.6
		c0.4-14.2-0.1-28.5,0.1-42.8c0.3-21-0.2-41.9-0.3-62.9c-0.1-17.5,0.9-35-0.1-52.4c-0.4-6.2,0.4-12.4,0-18.6
		c-0.4-5.2,0.4-5.8,6.2-5.8c21.1-0.1,42.3,0,63.4-0.1c6,0,12.1-0.4,18.1-0.3c8.3,0.2,8.4,8.1,8.4,8.1v41.4v10.8
		c3.9-4.5,6.6-7.2,8.8-10.2c14.2-18.6,32.2-33,53.6-43.5c13.5-6.6,27.9-10.6,42.7-12.9c25.9-4,51.9-3.4,77.6,1.4
		c10.4,2,19.9,6.5,29.4,10.8C1074.7,704.6,1074.7,705.9,1071.6,713.7z M1916.5,1214c-11.8-0.1-23.5,0-35.3,0l0,0
		c-14.2,0-28.4,0-42.6,0c-5.8,0-6.1-0.2-6.1-5.9c0.2-16.8,1.1-33.7,0.6-50.5c-0.5-19.8,0.6-39.6-0.3-59.3c-0.7-17.7,0.8-35.3-0.1-53
		c-0.9-18.6,0.3-37.1-0.2-55.7c-0.3-12,0.4-24,0.5-36c0.1-17.1-0.1-34.2-0.1-51.3c0-24,0.5-48.1-0.2-72.1
		c-0.4-15.2-0.2-30.4-0.1-45.5c0.2-27.6-0.2-55.1,0.1-82.7c0.1-6.6,0.1-6.8,7.1-6.8c28.1,0,56.1,0.2,84.2,0c4.5,0,5,1.9,5,5.2
		c0,11.4,0,22.8,0,34.3c0,12-0.2,23.9-0.1,35.9c0.1,20.8,0.4,41.6,0.3,62.4c-0.1,17.4-1.3,34.9-0.6,52.3c0.6,13.4-0.1,26.8,0.4,40.2
		c0.5,13.3-0.3,26.8-0.3,40.2c0.1,21.1,0.3,42.3,0.3,63.4c0,14.9,0.3,29.8-0.1,44.7c-0.4,14.8,0.7,29.7,0,44.4
		c-0.7,13,0.6,25.8,0.2,38.8c-0.4,14.5-1,29.1,0.2,43.7C1930.5,1213.7,1930,1214.1,1916.5,1214z M2439.8,1184.7
		c-23.2,16.2-48.6,27.7-76.5,34.2c-20,4.6-40.2,6.4-60.7,6.6c-26.2,0.3-51.4-3.8-75.5-13.3c-12.1-4.8-23.2-11.8-33.3-20.2
		c-27.1-22.3-40.5-51.6-49-83.8c-7.5-28.8-9.8-58.1-9.8-87.6c0-57.2,0-114.5,0-171.7V661.6c0-34.3,0-68.5,0-102.9
		c0-7,0.1-6.7,7.5-6.7c23.7,0.1,47.4,0,70.9,0c5.4,0,10.8,0,16.6,0c1.6,3.2,1.3,6.4,1.3,9.4c-0.3,21.2,0.2,42.3-0.2,63.5
		c-0.4,21.6,0.5,43-0.4,64.6c-0.2,5.1,1.1,6.2,6.8,6.2c36,0.1,72.1,0.1,108.2,0.2c25.8,0,51.6,0,77.4,0c6.6,0,6.8,0,6.9,6.9
		c0.2,12.4,0.1,24.9,0.1,37.3s-0.1,25,0.1,37.4c0.1,4-0.9,5.5-5.5,5.4c-35-0.3-69.9-0.4-105-0.4c-27.2,0-54.4,0.2-81.6,0.3
		c-6.5,0-7.3,0.7-7.2,5.8c0.4,17.6,0.5,35.1,0,52.8c-0.4,18.7,0.3,37.2,0.3,55.9c0,20.8-0.4,41.4-0.3,62.2c0.2,25-0.9,50.1,1.2,75.2
		c2,24.1,6.7,47.5,20.6,68.5c10.6,16.3,25.5,26.4,44.7,31.5c26.8,7.1,52.8,4.5,78.6-5c6.7-2.5,13.1-5.5,19.5-8.7
		c6-3.1,11.7-7,18-10.7c4.9,11.6,9.8,23.1,14.7,34.5c4.6,10.9,8.6,22.2,13.8,32.8C2443.5,1181.6,2442.5,1182.9,2439.8,1184.7z
		 M2700.5,1207.2c0,6.9-0.2,7-7.5,6.8h-53.4c-9.6,0.1-19.3,0-28.9,0.3c-4.4,0.1-5.6-1.3-5.6-5.5c0.1-39.5-0.2-79.1-0.1-118.6
		c0-41.3,0.3-82.5,0.4-123.8c0-3.7-0.7-7.5-0.4-11.2V821c0.1-36.1,0.2-72.2,1-108.3v-13c-0.7-3.4,0.9-4.3,4.4-4.3
		c13.5,0.2,27.1,0,40.6,0c14.2,0,28.4,0,42.6,0.1c6.5,0,6.8,0.2,6.9,6.1c0.2,10.6,0.2,21.2,0.2,31.8c-0.1,18.9-0.3,37.7-0.3,56.6
		c0,18.9,0.3,37.7,0.4,56.6c0.1,25.4-0.6,50.7,0,76.1c0.3,13.7-0.4,27.4-0.2,41.2c0.4,24.6-0.1,49.1,0.1,73.7
		c0.1,15.4-0.4,30.8-0.2,46.2c0.2,14.8-0.3,29.6,0.2,44.4c0.6,18-0.2,36.1-0.3,54.1C2700.2,1190.5,2700.6,1198.9,2700.5,1207.2z"/>
	<path class="st3" d="M68.5,965.3c19.9,13.1,41.1,21.1,63.9,25c11.6,2,23.3,2.8,35.1,2.8c6.5,0,6.6,0,7.9,6.4
		c4.5,22.6,13.6,43.4,26.6,62.7c15.2,22.6,34.9,40.7,59.6,53.7c22.7,12,46.6,19.2,72.5,21.9c28.6,3,56.5,0.7,83.7-7.4
		c33.5-10,61.5-27.9,83.6-54.6c15.4-18.7,26.1-39.3,32.8-61.8c4.9-16.2,7.1-32.9,7.8-50c0.8-20.7-1.4-40.7-6-60.7
		c-5-21.4-14.3-41.1-27-59c-11.5-16.2-25.9-30.1-42.9-41.6c-28.3-19.2-59.9-29.2-94.1-31.2c-18.7-1.1-37.6-1.2-56.2,3.2
		c-7,1.6-7.2,1.4-10.3-4.7c-12.6-25-31.6-44.6-55.2-60.2c-2.7-1.8-5.6-3.2-8.6-4.9c5.5-3.6,11.5-5.3,17.6-7
		c21-6.1,42.4-10.9,64.3-12.3c30-1.8,59.9-1.7,89.8,3.2c29.2,4.8,57.2,12.8,83.6,25.6c19.3,9.4,37.2,20.7,53.8,34.2
		c21.8,17.7,39.8,38.3,54.3,61.5c13.9,22.3,24,46.2,30.3,71.7c3.8,15.2,7.1,30.4,8.3,45.7c1.6,19.2,1.6,38.5-0.6,57.8
		c-2.3,20.6-6.3,40.8-12.7,60.6c-8.7,26.5-22.1,50.8-38.7,73.5c-8,10.9-17,21.1-27,30.1c-17.8,16.3-37.3,30.7-59.4,41.8
		c-21.7,10.9-44.2,19.6-67.8,25.1c-22.1,5.2-44.7,8.7-67.6,8.6c-10.7,0-21.4,0.7-32.2,0.1c-21-1.1-41.6-4.3-62-8.7
		c-20.3-4.4-39.8-11.4-58.4-20.1c-20.8-9.7-39.9-22-57.4-36.6c-27.4-22.8-48.5-50.4-64-81.7c-12-24.3-20.1-49.9-23.7-76.8
		C70.6,989.6,69.1,978,68.5,965.3z"/>
	<path class="st3" d="M2413.2,1110.4c4.9,11.6,9.8,23.1,14.7,34.5c4.6,10.9,8.6,22.2,13.8,32.8c1.8,3.7,0.8,5-1.9,6.9
		c-23.2,16.2-48.6,27.7-76.5,34.2c-20,4.6-40.2,6.4-60.7,6.6c-26.2,0.3-51.4-3.8-75.5-13.3c-12.1-4.8-23.2-11.8-33.3-20.2
		c-27.1-22.3-40.5-51.6-49-83.8c-7.5-28.8-9.8-58.1-9.8-87.6c0-57.2,0-114.5,0-171.7c0-62.4,0-124.8,0-187.4c0-34.3,0-68.5,0-102.9
		c0-7,0.1-6.7,7.5-6.7c23.7,0.1,47.4,0,70.9,0c5.4,0,10.8,0,16.6,0c1.6,3.2,1.3,6.4,1.3,9.4c-0.3,21.2,0.2,42.3-0.2,63.5
		c-0.4,21.6,0.5,43-0.4,64.6c-0.2,5.1,1.1,6.2,6.8,6.2c36,0.1,72.1,0.1,108.2,0.2c25.8,0,51.6,0,77.4,0c6.6,0,6.8,0,6.9,6.9
		c0.2,12.4,0.1,24.9,0.1,37.3s-0.1,25,0.1,37.4c0.1,4-0.9,5.5-5.5,5.4c-35-0.3-69.9-0.4-105-0.4c-27.2,0-54.4,0.2-81.6,0.3
		c-6.5,0-7.3,0.7-7.2,5.8c0.4,17.6,0.5,35.1,0,52.8c-0.4,18.7,0.3,37.2,0.3,55.9c0,20.8-0.4,41.4-0.3,62.2c0.2,25-0.9,50.1,1.2,75.2
		c2,24.1,6.7,47.5,20.6,68.5c10.6,16.3,25.5,26.4,44.7,31.5c26.8,7.1,52.8,4.5,78.6-5c6.7-2.5,13.1-5.5,19.5-8.7
		C2401.2,1118.1,2406.9,1114.2,2413.2,1110.4z"/>
	<path class="st3" d="M855.1,755.5c3.9-4.5,6.6-7.2,8.8-10.2c14.2-18.6,32.2-33,53.6-43.5c13.5-6.6,27.9-10.6,42.7-12.9
		c25.9-4,51.9-3.4,77.6,1.4c10.4,2,19.9,6.5,29.4,10.8c7.5,3.4,7.5,4.7,4.4,12.6c-8.3,21.3-16.5,42.7-24.8,64c-1.8,4.6-3.8,9-6,14.1
		c-5-2.3-10.2-4.6-15.1-7.1c-13.8-7-28.4-10.7-43.9-11.4c-21.2-0.9-42.1,0-62,8.3c-16.4,6.8-30.1,16.9-41.4,29.9
		c-8.2,9.5-15.4,19.7-21.3,30.7c-1.4,2.7-2.1,5.3-2.1,8.3c0.1,24.8,0,74.4,0,74.4l1,70.8v108.4c0,0-0.8,58.4-0.9,87.7
		c0,6-0.2,12.1,0,18.1c0.1,3.5-1.2,4.2-4.8,4.2c-19.6-0.1-39.2,0-58.9,0.1c-9.1,0-18.1-0.2-27.2,0.1c-4.5,0.1-5.6-1.4-5.5-5.5
		c0.2-35.3,0.2-70.6,0.2-105.9c0.1-26.6,0.2-53.2,0.2-79.9c0-26.1-0.6-52.2-0.2-78.3c0.3-22.2-0.2-44.4,0.3-66.6
		c0.4-14.2-0.1-28.5,0.1-42.8c0.3-21-0.2-41.9-0.3-62.9c-0.1-17.5,0.9-35-0.1-52.4c-0.4-6.2,0.4-12.4,0-18.6
		c-0.4-5.2,0.4-5.8,6.2-5.8c21.1-0.1,42.3,0,63.4-0.1c6,0,12.1-0.4,18.1-0.3c8.3,0.2,8.4,8.1,8.4,8.1v41.4
		C855,744.7,855.1,750.4,855.1,755.5z"/>
	<path class="st3" d="M1881.2,1214c-14.2,0-28.4,0-42.6,0c-5.8,0-6.1-0.2-6.1-5.9c0.2-16.8,1.1-33.7,0.6-50.5
		c-0.5-19.8,0.6-39.6-0.3-59.3c-0.7-17.7,0.8-35.3-0.1-53c-0.9-18.6,0.3-37.1-0.2-55.7c-0.3-12,0.4-24,0.5-36
		c0.1-17.1-0.1-34.2-0.1-51.3c0-24,0.5-48.1-0.2-72.1c-0.4-15.2-0.2-30.4-0.1-45.5c0.2-27.6-0.2-55.1,0.1-82.7
		c0.1-6.6,0.1-6.8,7.1-6.8c28.1,0,56.1,0.2,84.2,0c4.5,0,5,1.9,5,5.2c0,11.4,0,22.8,0,34.3c0,12-0.2,23.9-0.1,35.9
		c0.1,20.8,0.4,41.6,0.3,62.4c-0.1,17.4-1.3,34.9-0.6,52.3c0.6,13.4-0.1,26.8,0.4,40.2c0.5,13.3-0.3,26.8-0.3,40.2
		c0.1,21.1,0.3,42.3,0.3,63.4c0,14.9,0.3,29.8-0.1,44.7c-0.4,14.8,0.7,29.7,0,44.4c-0.7,13,0.6,25.8,0.2,38.8
		c-0.4,14.5-1,29.1,0.2,43.7c1.1,13.1,0.6,13.5-13,13.4C1904.7,1213.9,1893,1214,1881.2,1214L1881.2,1214z"/>
	<path class="st3" d="M2605,955.2V821c0-36.1,0.1-72.2,1-108.3v-13c-0.8-3.4,0.8-4.3,4.3-4.3c13.5,0.2,27.1,0,40.6,0
		c14.2,0,28.4,0,42.6,0.1c6.5,0,6.8,0.2,6.9,6.1c0.2,10.6,0.2,21.2,0.2,31.8c-0.1,18.9-0.3,37.7-0.3,56.6c0,18.9,0.3,37.7,0.4,56.6
		c0.1,25.4-0.6,50.7,0,76.1c0.3,13.7-0.4,27.4-0.2,41.2c0.4,24.6-0.1,49.1,0.1,73.7c0.1,15.4-0.5,30.8-0.2,46.2
		c0.2,14.8-0.3,29.6,0.2,44.4c0.6,18-0.2,36.1-0.3,54.1c0,8.3,0.3,16.7,0.3,25c0,6.9-0.2,7-7.5,6.7h-53.4
		c-9.6,0.2-19.3,0.1-28.9,0.4c-4.4,0.1-5.6-1.3-5.6-5.5c0.1-39.5-0.2-79.1-0.1-118.6c0-41.3,0.3-82.5,0.4-123.8
		C2605.3,962.7,2604.6,958.9,2605,955.2z"/>
	<ellipse class="st5" cx="178.5" cy="842.1" rx="92.9" ry="89"/>
	<ellipse class="st5" cx="3312" cy="1104.3" rx="92.9" ry="89"/>
	<g>
		<path class="st3" d="M3160.8,689.8c-174,0-272.8,117.2-272.8,264.9c0,160,111.7,264.9,283.4,264.9c12.8,0,25.8-0.7,38.8-2.1
			c-6.4-27.3-9.2-55.4-15-82.8c-5.5,0.3-11.1,0.5-16.8,0.5c-103.5,0-176.4-56.4-184.6-152.2h406.9c3.5-15.8,5.9-36.1,5.9-60.9
			C3406.6,782.3,3297.3,689.8,3160.8,689.8z M2988,910c10.6-77.8,71.7-135.2,168.2-135.2c91.7,0,148.2,51.8,152.9,135.2H2988z"/>
	</g>
	<text transform="matrix(1 0 0 1 746.9532 1474.3193)" class="st5 st6 st7">Innovative Solutions</text>
</g>
</svg>
